<svg width="48" height="56" viewBox="0 0 48 56" fill="none" xmlns="http://www.w3.org/2000/svg">
<g filter="url(#filter0_d_5_29)">
<path d="M32.657 0.295895C30.4312 0.552926 27.2812 2.51621 25.7172 4.61621C24.8148 5.81933 24.2843 6.96777 23.825 8.69589L23.5953 9.55996L23.6062 10.4787C23.6172 10.9818 23.6445 11.4521 23.6718 11.5287C23.7429 11.7092 23.8797 11.7365 24.8422 11.742C25.6406 11.7475 25.6898 11.742 26.3734 11.5396C28.2 11.0092 29.5398 10.2107 30.4914 9.07871C30.7211 8.7998 31.0656 8.42793 31.2461 8.24199C31.8476 7.65136 32.6187 6.33886 33.0453 5.20136C33.4718 4.05839 33.6632 2.99746 33.7179 1.48808L33.7507 0.520113L33.6086 0.377926C33.45 0.219332 33.3625 0.213863 32.657 0.295895Z" fill="#717171"/>
<path d="M32.1484 11.5998C31.0656 11.6545 28.1508 12.4639 26.0562 13.2842C24.7875 13.7818 24.7875 13.7818 24.5359 13.8256C24.0984 13.8967 23.0265 13.585 21.1836 12.8412C20.2047 12.4529 19.1984 12.1576 17.7109 11.8185C17.0875 11.6818 16.0539 11.6654 15.6054 11.7912C15.425 11.8404 14.8562 11.9553 14.3422 12.0428C13.2375 12.2396 12.614 12.431 11.7828 12.8412C9.27263 14.0662 7.56091 15.8271 6.20466 18.5834C5.6031 19.7975 5.16013 20.9842 4.832 22.2475C4.34528 24.1232 4.33435 27.7217 4.81013 29.9037C4.86481 30.1717 4.91403 30.4889 4.91403 30.6146C4.91403 30.8771 4.96325 31.074 5.42263 32.8842C5.84919 34.5576 5.80544 34.4209 6.62028 36.4662C7.76325 39.3373 8.12419 39.9717 10.4593 43.1928C11.4164 44.5107 11.9031 45.1123 12.6086 45.8287C13.3468 46.5834 13.9429 47.0209 14.7851 47.4365C15.7367 47.9014 16.1523 48.0053 17.0273 47.9998C18.1484 47.9998 19.0508 47.7701 20.7679 47.0482C21.8508 46.5943 21.9218 46.5725 23.8906 46.1678C24.4812 46.042 25.0281 46.0529 25.8593 46.1896C26.1437 46.2334 26.5703 46.299 26.8 46.3318C27.2648 46.3975 27.7351 46.5506 28.9492 47.0373C30.4148 47.6279 31.4484 47.8904 32.5312 47.956C34.1062 48.0545 35.6265 47.3545 37.2508 45.7959C38.9078 44.1935 40.4554 42.0006 42.0195 39.042C42.4406 38.2435 43.1133 36.6084 43.2281 36.1162C43.2773 35.9193 43.3593 35.6732 43.4195 35.5748C43.4742 35.4764 43.5234 35.3396 43.5234 35.2795C43.5234 35.0826 43.1242 34.7709 42.4187 34.4154C41.0898 33.7318 39.7828 32.5615 38.9023 31.2435C38.2734 30.2975 37.639 28.881 37.4804 28.0443C37.2125 26.6662 37.1359 25.1568 37.289 24.1068C37.3273 23.8334 37.464 23.2592 37.5953 22.8217C38.1586 20.924 38.5468 20.1639 39.4273 19.2232C39.6953 18.9443 39.914 18.6873 39.914 18.6654C39.914 18.5725 41.2539 17.4514 41.582 17.2709C41.7625 17.167 41.9922 17.0084 42.0906 16.91C42.3914 16.6146 42.3476 16.4998 41.5929 15.6139C40.5812 14.4271 39.307 13.4537 37.8086 12.7264C36.8734 12.2725 36.2281 12.0482 35.3258 11.8623C34.4015 11.6654 33.0234 11.5506 32.1484 11.5998Z" fill="#717171"/>
</g>
<defs>
<filter id="filter0_d_5_29" x="0.460022" y="0.243637" width="47.0634" height="55.7564" filterUnits="userSpaceOnUse" color-interpolation-filters="sRGB">
<feFlood flood-opacity="0" result="BackgroundImageFix"/>
<feColorMatrix in="SourceAlpha" type="matrix" values="0 0 0 0 0 0 0 0 0 0 0 0 0 0 0 0 0 0 127 0" result="hardAlpha"/>
<feOffset dy="4"/>
<feGaussianBlur stdDeviation="2"/>
<feComposite in2="hardAlpha" operator="out"/>
<feColorMatrix type="matrix" values="0 0 0 0 0 0 0 0 0 0 0 0 0 0 0 0 0 0 0.25 0"/>
<feBlend mode="normal" in2="BackgroundImageFix" result="effect1_dropShadow_5_29"/>
<feBlend mode="normal" in="SourceGraphic" in2="effect1_dropShadow_5_29" result="shape"/>
</filter>
</defs>
</svg>
